<?xml version="1.0" standalone="no"?>
<!DOCTYPE svg PUBLIC "-//W3C//DTD SVG 20010904//EN"
 "http://www.w3.org/TR/2001/REC-SVG-20010904/DTD/svg10.dtd">
<svg version="1.0" xmlns="http://www.w3.org/2000/svg"
 width="1024.000000pt" height="1024.000000pt" viewBox="0 0 1024.000000 1024.000000"
 preserveAspectRatio="xMidYMid meet">
<metadata>
Created by potrace 1.11, written by Peter Selinger 2001-2013
</metadata>
<g transform="translate(0.000000,1024.000000) scale(0.100000,-0.100000)"
fill="#000000" stroke="none">
<path d="M4889 9496 c-2 -2 -47 -6 -99 -10 -52 -3 -113 -8 -135 -11 -22 -2
-65 -7 -95 -11 -30 -3 -93 -12 -140 -20 -47 -8 -98 -17 -115 -20 -81 -13 -274
-60 -395 -94 -521 -150 -1017 -398 -1432 -718 -56 -42 -112 -86 -127 -97 -14
-11 -31 -24 -37 -30 -6 -5 -42 -37 -80 -70 -72 -62 -307 -294 -384 -380 -464
-514 -816 -1184 -984 -1871 -19 -78 -37 -157 -40 -177 -3 -20 -10 -56 -15 -79
-6 -24 -13 -65 -17 -93 -3 -27 -8 -59 -10 -70 -2 -11 -6 -44 -10 -73 -3 -29
-7 -61 -9 -70 -26 -139 -27 -800 0 -953 2 -13 6 -46 9 -74 4 -53 6 -64 37
-240 19 -108 22 -125 54 -255 36 -153 124 -438 154 -505 5 -11 23 -56 41 -100
43 -110 39 -101 129 -285 76 -156 109 -218 159 -300 12 -19 27 -46 34 -60 7
-14 21 -34 30 -44 10 -11 18 -25 18 -32 0 -7 3 -14 8 -16 8 -3 62 -84 62 -93
0 -3 8 -13 18 -24 28 -30 97 -135 94 -144 -1 -5 2 -6 8 -2 5 3 10 3 10 -2 0
-4 10 -20 23 -35 12 -14 30 -36 40 -48 10 -11 15 -26 11 -32 -4 -6 -3 -8 3 -5
5 3 24 -12 42 -34 32 -38 91 -106 138 -157 13 -14 20 -29 16 -35 -3 -5 -2 -7
4 -4 6 4 21 -5 33 -18 13 -14 19 -25 14 -25 -5 0 2 -6 16 -13 14 -8 24 -19 22
-25 -1 -7 4 -11 10 -10 7 2 12 -3 10 -10 -1 -6 4 -11 10 -10 7 2 11 -4 10 -12
-2 -8 0 -12 4 -8 4 4 31 -17 60 -47 30 -30 56 -55 59 -55 10 0 37 -30 28 -30
-4 0 3 -6 17 -13 14 -8 24 -19 23 -25 -2 -6 4 -9 12 -6 9 4 15 0 15 -9 0 -9 5
-19 12 -23 7 -5 8 -3 3 7 -8 12 -6 12 8 0 9 -7 17 -20 17 -29 0 -8 3 -12 6 -9
10 9 65 -33 58 -44 -3 -5 -2 -9 3 -8 20 3 34 -2 28 -11 -3 -6 1 -10 9 -10 8 0
20 -8 25 -18 6 -9 11 -13 11 -8 0 5 7 3 15 -4 8 -7 12 -17 8 -23 -3 -6 -1 -7
5 -3 7 4 12 2 12 -4 0 -6 4 -9 9 -5 5 3 16 -4 24 -15 7 -11 17 -17 20 -13 4 3
7 1 7 -5 0 -7 5 -12 11 -12 6 0 20 -10 31 -22 11 -13 17 -16 13 -8 -4 8 3 4
14 -9 12 -13 21 -19 21 -15 0 5 4 4 8 -1 4 -6 20 -19 36 -29 22 -14 26 -20 15
-27 -9 -6 -10 -9 -2 -9 6 0 15 4 18 10 4 6 15 2 27 -10 12 -11 26 -20 30 -20
5 0 6 -5 2 -12 -4 -7 -3 -8 4 -4 15 9 52 -15 52 -34 0 -13 1 -13 10 0 6 10 10
11 10 3 0 -7 6 -13 14 -13 8 0 18 -5 22 -12 5 -7 3 -8 -6 -3 -8 5 -11 4 -7 -3
4 -5 17 -8 29 -4 14 3 19 2 14 -6 -6 -10 6 -17 18 -9 2 1 13 -6 23 -16 11 -9
23 -14 28 -10 4 5 6 1 2 -9 -7 -21 3 -31 19 -17 9 8 15 5 23 -9 6 -11 7 -23 3
-27 -4 -5 -1 -5 6 -1 7 4 10 12 7 17 -4 5 -2 9 3 9 6 0 12 -7 16 -15 3 -8 0
-15 -6 -15 -6 0 -8 -3 -5 -6 4 -4 13 -1 21 5 12 10 18 9 33 -6 11 -11 25 -17
31 -15 7 2 12 -1 12 -8 0 -6 4 -8 10 -5 13 8 13 -8 -1 -22 -8 -8 -8 -13 0 -18
7 -4 10 -1 9 7 -2 7 3 12 10 10 8 -1 11 3 7 10 -4 7 -1 6 7 -3 7 -9 19 -14 26
-12 6 3 12 -3 12 -14 0 -15 2 -16 11 -3 9 12 10 11 6 -5 -3 -15 1 -21 14 -21
14 0 16 3 6 15 -7 8 6 5 32 -8 40 -21 42 -23 24 -37 -17 -14 -16 -14 5 -4 27
13 66 4 55 -13 -4 -7 2 -5 12 3 17 14 18 13 11 -5 -5 -15 -4 -17 5 -8 13 13
59 -2 59 -19 0 -5 5 -6 10 -3 5 3 10 2 10 -4 0 -5 -6 -11 -12 -14 -7 -2 0 -4
16 -4 19 0 24 2 15 8 -10 6 -10 9 -2 9 6 0 15 -5 18 -10 4 -6 10 -8 15 -5 5 3
19 -5 31 -17 12 -13 19 -18 16 -12 -4 7 2 9 19 6 20 -4 23 -7 12 -14 -9 -7 -7
-8 10 -5 15 4 22 0 22 -10 0 -13 3 -13 16 -2 13 10 17 10 25 -2 5 -8 9 -10 9
-5 0 5 7 3 15 -4 8 -7 15 -9 15 -4 0 5 4 3 9 -4 4 -7 18 -14 29 -15 20 -1 26
-9 23 -29 0 -5 4 -8 10 -8 6 0 9 9 6 20 -5 18 -3 19 24 4 16 -8 29 -17 29 -20
0 -3 -5 -2 -12 2 -7 4 -8 3 -4 -5 6 -9 11 -9 24 1 12 10 16 10 19 1 3 -7 9
-13 14 -13 6 0 7 5 3 11 -3 6 7 4 24 -5 16 -8 32 -13 35 -10 3 3 3 -5 1 -18
-5 -20 -4 -21 6 -5 12 19 30 23 30 6 0 -5 -4 -7 -10 -4 -15 9 -12 -1 4 -14 11
-9 16 -9 22 0 5 8 3 9 -6 4 -8 -5 -11 -4 -6 3 3 6 16 8 29 6 12 -3 28 -6 34
-6 8 -1 11 -11 8 -25 -3 -22 -2 -23 13 -12 27 21 28 23 9 16 -11 -4 -16 -3
-12 3 7 11 53 6 64 -6 3 -4 -2 -4 -11 -1 -10 4 -18 4 -18 1 0 -11 46 -21 62
-13 11 6 19 5 24 -3 4 -6 3 -8 -4 -4 -6 3 -14 1 -18 -5 -4 -7 -3 -9 4 -5 6 3
16 -2 22 -11 10 -15 11 -15 6 -1 -8 26 5 29 25 6 11 -11 19 -17 19 -12 0 6 -6
16 -12 23 -11 11 -10 12 2 5 8 -4 25 -8 39 -8 13 -1 26 -8 28 -16 4 -13 3 -13
-6 0 -5 8 -13 11 -18 7 -4 -5 -1 -12 6 -17 17 -10 43 -2 35 11 -3 5 0 9 5 9 6
0 11 -4 11 -8 0 -4 9 -8 20 -9 13 -1 18 2 13 10 -5 9 -3 9 8 1 8 -6 24 -10 36
-9 17 1 20 -3 17 -24 -1 -14 -1 -20 2 -13 8 18 24 15 24 -5 0 -11 3 -14 8 -7
10 14 57 10 79 -7 11 -9 14 -10 9 -2 -4 7 -3 13 3 13 5 0 13 -4 16 -10 3 -5
12 -10 18 -9 9 0 8 2 -1 6 -6 2 -9 10 -6 15 4 6 2 8 -4 4 -6 -3 -13 -3 -16 2
-2 4 4 8 14 9 11 1 24 -10 34 -30 9 -19 16 -25 16 -15 0 11 6 16 20 13 11 -2
18 0 15 5 -3 5 -14 7 -25 5 -13 -3 -17 1 -13 12 3 8 9 11 12 6 3 -4 11 -9 16
-10 6 -1 19 -5 29 -9 13 -5 17 -4 12 4 -5 8 -2 10 9 6 12 -5 13 -10 4 -20 -6
-8 -16 -11 -22 -7 -6 3 -7 1 -3 -6 6 -9 11 -9 23 0 11 10 19 10 33 1 14 -9 20
-8 24 1 3 9 7 9 14 -1 7 -11 10 -11 15 3 4 9 3 13 -2 10 -5 -3 -12 -2 -15 3
-2 4 4 9 15 9 10 1 19 -3 19 -8 0 -6 6 -7 13 -2 18 11 36 12 42 3 3 -5 12 -7
20 -3 8 3 15 1 15 -4 0 -5 -22 -9 -50 -8 -27 1 -50 -2 -50 -7 0 -5 11 -6 24
-4 14 2 27 -1 30 -7 3 -8 5 -7 5 2 1 11 4 11 16 1 8 -7 15 -9 15 -5 0 4 8 1
18 -6 15 -13 16 -12 3 4 -15 20 -9 22 22 6 19 -9 19 -7 -3 10 -19 16 -20 20
-6 14 14 -5 17 -3 11 7 -5 9 -4 11 4 6 6 -4 8 -12 5 -18 -4 -7 2 -8 17 -3 13
4 36 9 51 10 25 2 26 1 16 -19 -6 -11 -7 -18 -3 -14 5 4 14 3 22 -3 10 -9 13
-8 13 1 0 10 3 10 14 1 11 -10 14 -9 12 3 -1 9 -6 19 -11 23 -4 4 -6 3 -2 -2
3 -6 -3 -12 -14 -12 -24 -2 -24 4 1 17 15 8 24 5 46 -17 14 -16 23 -22 19 -14
-6 10 -2 12 14 6 17 -5 21 -2 21 14 0 12 4 21 9 21 6 0 8 -9 6 -20 -4 -23 12
-37 27 -22 6 6 17 8 24 5 8 -3 14 1 14 11 0 9 -5 16 -11 16 -5 0 -7 -6 -3 -12
5 -8 2 -8 -10 1 -13 11 -16 11 -14 1 2 -7 -3 -15 -10 -17 -11 -4 -12 -1 -3 15
11 21 54 24 95 7 15 -6 17 -5 11 5 -5 9 -4 11 4 6 6 -4 9 -11 6 -16 -7 -12
-45 -8 -45 4 0 5 -3 6 -6 3 -4 -4 -1 -13 6 -22 11 -14 15 -14 35 -1 20 13 25
13 45 -1 13 -9 20 -11 16 -5 -4 7 -3 12 3 12 5 0 13 -5 16 -10 9 -15 27 -1 21
16 -3 8 -1 14 5 14 6 0 8 4 5 8 -3 5 1 9 9 9 10 0 12 -4 5 -12 -6 -8 -5 -18 4
-30 10 -14 15 -15 21 -5 5 8 4 11 -2 7 -6 -4 -13 0 -16 7 -6 15 28 17 51 2 14
-8 32 0 32 16 0 7 -5 6 -14 -1 -10 -8 -16 -9 -21 -1 -3 6 -10 8 -15 5 -5 -3
-11 -2 -14 3 -4 7 91 9 104 2 3 -1 9 -2 14 -1 5 1 17 -5 26 -14 17 -16 19 -15
30 5 11 20 10 21 -8 11 -15 -8 -21 -7 -25 4 -4 9 -1 12 10 8 8 -3 19 0 24 8 6
10 9 10 9 2 0 -7 8 -13 18 -13 14 0 15 2 2 10 -8 5 -10 10 -4 10 6 0 18 -8 25
-17 7 -10 10 -15 5 -11 -11 9 -46 -9 -46 -23 0 -6 7 -3 16 6 14 13 19 14 25 3
7 -10 9 -10 10 2 1 8 1 21 0 28 -1 6 3 12 9 12 6 0 9 -4 5 -9 -3 -6 4 -15 16
-21 15 -8 19 -9 15 -1 -4 6 -2 11 3 11 6 0 11 -6 11 -12 0 -9 4 -8 10 2 9 14
14 7 11 -13 -1 -5 3 -6 9 -2 8 5 8 11 -1 21 -6 7 -16 11 -22 7 -6 -3 -7 -1 -3
5 9 16 -7 15 -22 0 -8 -8 -12 -8 -12 -1 0 16 32 25 44 13 13 -13 27 -13 24 1
-2 6 4 14 12 16 9 3 11 1 5 -4 -11 -9 -18 -33 -9 -33 3 0 12 7 20 15 8 8 22
11 32 8 13 -5 15 -4 7 8 -5 8 -2 6 8 -4 9 -11 17 -15 17 -11 0 5 11 17 24 26
22 16 25 16 38 1 11 -14 11 -16 -1 -8 -10 6 -12 4 -7 -4 5 -7 11 -10 14 -7 3
3 12 0 21 -7 13 -10 13 -7 -2 15 -13 21 -14 29 -4 34 6 4 9 4 5 -1 -12 -13 12
-35 29 -28 12 5 14 3 8 -7 -6 -9 -1 -8 15 3 17 12 28 13 42 6 10 -5 18 -6 17
-2 -3 20 2 23 22 12 16 -8 20 -8 14 1 -4 7 1 13 13 17 14 3 19 11 15 21 -3 11
-2 13 4 6 4 -6 18 -16 30 -22 19 -10 20 -9 16 8 -3 11 -9 18 -13 15 -5 -3 -12
0 -16 6 -4 7 -3 9 4 5 6 -3 13 -2 17 4 3 5 12 10 18 10 9 0 9 -2 0 -8 -10 -7
-10 -12 1 -28 17 -22 25 -17 28 19 1 14 6 23 10 21 5 -3 6 -9 3 -14 -8 -12 32
-19 44 -7 8 8 11 7 11 -4 0 -11 2 -11 9 -1 4 8 12 13 17 13 12 -1 12 22 -1 32
-6 5 -3 7 7 4 9 -3 18 -1 21 6 2 8 5 8 11 -1 4 -7 2 -12 -4 -12 -6 0 -8 -5 -4
-12 4 -7 3 -8 -4 -4 -8 5 -10 1 -5 -9 5 -13 7 -14 14 -3 5 7 9 9 9 4 0 -5 6
-3 13 3 8 6 18 7 22 3 5 -4 5 -1 1 6 -4 7 -12 10 -17 7 -5 -3 -6 1 -3 9 4 10
1 16 -7 16 -7 0 -10 3 -6 6 9 9 58 -32 49 -41 -4 -5 -1 -5 6 -1 11 6 10 12 -5
29 l-18 20 30 -19 30 -18 -20 24 c-11 14 -13 20 -5 14 20 -15 70 -23 70 -12 0
5 4 7 9 4 4 -3 16 3 26 14 10 11 24 20 32 20 8 0 12 4 9 9 -6 10 18 34 26 26
3 -3 15 -8 27 -10 16 -3 21 0 19 12 -2 12 5 17 25 18 15 1 27 -2 27 -7 0 -7
-8 -10 -26 -7 -4 0 -11 -5 -15 -13 -11 -16 -12 -38 -1 -22 4 6 17 16 30 23 17
9 22 9 22 -1 0 -7 7 -2 16 10 11 16 19 20 27 13 8 -6 18 -5 30 4 14 10 15 14
4 18 -8 3 -20 1 -26 -4 -6 -5 -9 -6 -6 -3 3 4 -1 14 -8 23 -11 14 -10 14 6 2
11 -9 17 -10 17 -2 0 6 5 11 11 11 5 0 7 -4 4 -10 -3 -5 1 -10 10 -10 9 0 14
4 11 9 -3 4 3 16 13 25 13 11 21 14 26 7 3 -6 11 -11 17 -11 6 0 5 7 -3 17
-13 15 -12 15 8 3 11 -8 19 -20 16 -27 -3 -7 -3 -13 0 -13 14 0 14 31 1 45 -9
8 -11 15 -4 15 6 0 16 -11 22 -25 8 -18 14 -22 19 -13 5 7 14 13 21 13 7 0 14
8 16 19 3 11 0 16 -7 11 -6 -3 -9 -10 -6 -15 8 -13 -24 -5 -38 10 -9 10 -9 11
1 6 7 -4 12 -2 12 6 0 9 3 9 10 -2 9 -13 14 -7 11 12 -2 12 9 9 24 -6 8 -7 11
-17 7 -21 -4 -5 4 -1 17 8 13 8 30 13 37 10 15 -6 15 21 1 44 -5 8 -4 13 2 13
6 0 11 -5 11 -11 0 -5 6 -7 13 -3 7 5 6 0 -3 -12 -14 -17 -13 -18 1 -7 9 7 18
11 21 8 3 -3 18 13 33 35 15 22 30 40 32 40 2 0 1 -4 -2 -10 -3 -5 -1 -18 5
-27 10 -16 11 -16 6 -1 -7 23 21 45 36 30 9 -9 16 -8 27 2 9 8 20 15 26 15 5
0 11 5 13 13 3 10 1 9 -6 -1 -8 -11 -10 -8 -9 12 1 15 3 27 4 27 1 0 9 -12 18
-27 l16 -28 -5 26 c-4 17 0 31 9 39 12 10 13 7 9 -14 -4 -22 -1 -25 17 -23 14
2 24 12 26 26 2 14 -1 20 -8 16 -6 -4 -8 -13 -6 -19 3 -7 -1 -13 -8 -13 -8 0
-11 7 -7 16 9 26 24 30 51 13 l26 -16 -20 24 -20 24 27 -17 c16 -10 29 -13 33
-7 6 10 5 11 -17 14 -6 0 -12 9 -14 18 -2 16 -1 16 24 0 18 -12 24 -13 18 -3
-6 9 -5 12 5 9 8 -3 13 -11 11 -17 -1 -7 1 -10 6 -7 13 8 7 49 -8 54 -7 3 -10
0 -7 -5 3 -5 -4 -10 -15 -10 -21 -2 -21 -2 1 13 16 12 25 13 35 5 7 -6 17 -7
22 -3 4 4 2 -1 -5 -10 -7 -10 -9 -18 -3 -18 5 0 13 7 16 16 3 8 10 12 16 9 6
-4 7 -11 4 -17 -4 -7 -2 -8 5 -4 9 6 9 11 -1 24 -11 13 -11 15 3 10 15 -6 18
0 20 47 1 11 3 14 6 8 8 -22 25 -14 18 8 -7 20 -6 21 12 2 19 -18 20 -27 2
-29 -5 -1 -13 -2 -19 -3 -5 0 -10 -6 -10 -12 0 -5 5 -7 10 -4 6 3 10 1 10 -6
0 -6 8 -1 18 12 21 27 25 60 8 72 -6 5 0 5 13 2 20 -6 23 -5 17 11 -4 10 -4
15 0 11 4 -4 15 0 25 9 16 15 35 21 69 24 12 0 10 4 -5 17 -16 13 -17 15 -2
10 10 -4 17 -1 17 6 0 8 4 7 10 -3 5 -9 5 -19 -2 -27 -17 -21 0 -28 20 -10 10
10 22 14 25 10 4 -3 7 -1 7 6 0 7 -6 11 -14 8 -8 -3 -17 1 -20 9 -3 9 -1 12 4
9 6 -3 10 -1 10 4 0 6 -5 11 -12 11 -6 0 -9 2 -6 5 9 10 38 -7 31 -18 -4 -7 0
-8 13 -3 10 5 24 9 31 9 7 0 11 5 10 11 -1 6 4 10 11 8 8 -1 11 2 7 8 -4 6
-14 5 -28 -5 -15 -9 -27 -11 -37 -5 -8 5 -13 10 -10 11 12 4 57 10 82 11 15 1
25 4 24 7 -2 3 2 12 10 19 8 7 14 10 14 6 0 -3 7 -1 15 6 8 7 12 16 9 21 -7
11 21 51 29 42 4 -3 -1 -11 -10 -18 -10 -7 -12 -14 -6 -18 6 -4 19 5 28 19 9
15 13 24 9 21 -5 -3 -15 1 -22 9 -15 17 -16 17 25 5 22 -7 35 -6 39 1 4 6 3 8
-3 5 -6 -4 -15 5 -22 19 -6 15 -7 23 -1 19 5 -3 10 -1 10 6 0 8 3 9 13 0 17
-13 27 -5 28 23 0 21 1 21 8 1 9 -22 -14 -46 -36 -38 -7 3 -13 -1 -13 -8 0 -7
3 -9 6 -6 4 3 15 2 25 -4 15 -8 17 -6 12 8 -5 12 -2 15 10 10 9 -3 16 -3 16 1
-3 20 3 23 19 11 15 -13 16 -12 3 4 -13 16 -9 31 7 33 20 2 41 17 36 25 -3 5
3 9 12 9 17 0 17 1 0 13 -16 12 -16 14 -2 26 9 8 16 21 16 30 0 14 2 14 11 1
9 -12 10 -11 6 6 -3 13 1 21 9 21 21 0 17 -15 -11 -42 -15 -13 -22 -26 -17
-29 6 -3 13 1 16 10 3 9 13 14 21 10 8 -3 17 0 21 6 4 7 3 8 -4 4 -14 -9 -15
3 -2 24 5 9 5 19 -2 27 -7 9 -7 13 1 13 7 0 9 5 5 11 -4 8 0 8 15 0 24 -13 28
-23 7 -15 -10 4 -14 -1 -13 -15 1 -12 5 -21 10 -21 5 0 7 6 4 14 -4 10 0 13
14 11 11 -2 17 0 14 5 -3 4 -2 10 2 13 5 2 3 2 -4 1 -6 -2 -14 4 -17 12 -8 21
-8 24 5 24 5 0 7 -4 4 -10 -10 -16 6 -12 29 7 20 17 20 17 7 1 -9 -12 -10 -18
-2 -18 6 0 11 4 11 10 0 5 8 7 18 3 12 -4 11 -1 -5 11 -12 9 -27 14 -35 13 -7
-2 -10 -2 -5 0 4 3 5 8 2 13 -3 4 3 14 13 21 15 13 16 12 3 -3 -16 -22 -2 -23
25 -3 11 8 14 15 7 15 -7 0 -13 5 -13 11 0 5 5 7 10 4 6 -3 10 0 10 7 0 10 2
10 8 0 12 -18 49 26 46 56 -2 27 2 28 16 2 8 -15 6 -23 -9 -37 -15 -14 -17
-22 -10 -33 9 -13 10 -12 5 2 -3 11 2 19 15 23 10 4 17 11 14 16 -4 5 -1 9 6
9 7 0 6 8 -5 25 -15 23 -15 25 2 34 11 6 24 6 33 0 21 -13 27 -11 34 11 3 11
9 19 13 17 4 -1 7 0 8 3 3 18 27 50 34 45 5 -3 11 -1 14 4 4 5 2 12 -2 15 -13
8 -55 -40 -48 -53 7 -11 -33 -6 -43 5 -3 4 2 4 12 1 9 -4 18 -2 18 3 1 6 2 16
3 23 0 6 7 13 14 13 25 3 27 6 7 14 -17 7 -15 9 10 8 17 -1 37 -6 45 -12 12
-8 13 -7 3 3 -14 17 -6 41 14 41 13 0 13 -2 2 -17 -13 -16 -12 -17 3 -5 17 13
18 36 3 49 -4 4 -6 3 -2 -2 3 -6 -3 -12 -14 -12 -20 -2 -26 21 -9 32 6 4 7 -1
3 -12 -5 -17 -5 -17 13 1 15 14 16 20 6 23 -9 3 -3 12 18 24 19 12 28 24 24
32 -4 6 -4 9 1 5 4 -4 20 -1 36 8 16 8 31 14 34 14 3 0 5 3 4 6 -1 11 36 32
45 27 5 -4 6 -1 2 6 -4 6 -12 8 -18 5 -6 -4 -9 -1 -6 7 3 8 12 13 21 13 9 -1
13 4 10 13 -3 8 0 13 8 11 9 -2 13 4 11 14 -2 10 2 18 8 18 6 0 8 5 4 11 -3 6
-14 -2 -25 -20 -23 -38 -69 -65 -69 -40 0 5 5 7 10 4 6 -3 10 2 10 12 0 14 2
15 9 4 5 -8 11 -9 15 -3 4 6 -2 16 -11 22 -13 8 -14 10 -3 9 28 -3 40 1 40 12
0 6 -7 8 -16 5 -8 -3 -12 -2 -9 3 7 13 46 10 65 -3 12 -9 13 -8 4 4 -21 27 4
66 38 61 4 0 5 6 1 14 -3 11 -9 12 -17 6 -8 -6 -17 -6 -26 1 -12 8 -12 9 3 4
14 -4 21 2 29 24 5 17 17 30 26 30 29 1 53 26 45 46 -6 17 -5 18 13 4 18 -14
18 -14 5 3 -11 14 -11 20 -1 32 9 11 16 12 25 5 16 -14 12 35 -6 56 -6 8 -9
17 -5 21 3 3 6 2 6 -4 0 -8 20 -9 49 -4 3 1 -6 13 -20 27 l-24 27 25 -16 c17
-11 30 -13 40 -7 13 9 13 10 0 11 -8 1 -18 1 -22 0 -4 0 -12 9 -19 20 -6 12
-7 19 -1 15 12 -7 35 18 25 27 -3 4 -1 7 5 7 6 0 9 8 5 18 -5 14 -3 13 10 -3
13 -16 16 -17 17 -4 0 8 -6 21 -12 28 -9 10 -10 12 -1 7 13 -7 37 29 28 44 -3
5 0 12 6 16 8 4 9 3 5 -4 -4 -7 -3 -12 1 -12 5 0 10 -10 10 -22 2 -19 0 -20
-8 -8 -9 12 -10 12 -5 -3 4 -12 2 -16 -6 -11 -7 5 -8 3 -3 -6 6 -9 4 -11 -6
-5 -8 5 -10 4 -6 0 10 -12 39 -16 32 -5 -3 5 -1 11 5 15 6 3 8 17 6 30 -3 17
0 22 8 19 19 -7 28 25 12 41 -12 12 -15 12 -20 0 -3 -9 1 -15 10 -15 8 0 12
-4 9 -10 -4 -6 -13 -5 -24 2 -16 10 -17 13 -5 26 8 7 11 19 7 25 -5 8 -2 8 9
0 8 -7 19 -9 23 -5 5 4 5 1 1 -5 -5 -9 -2 -11 7 -7 9 3 13 13 10 25 -5 17 5
24 30 20 5 -1 6 3 2 9 -3 6 -10 8 -14 6 -4 -3 -13 4 -20 16 -9 14 -9 18 -1 13
9 -5 10 -1 6 16 -3 13 -3 18 0 11 5 -10 9 -10 22 0 15 12 16 11 3 -5 -7 -9
-10 -17 -5 -17 5 0 2 -5 -6 -10 -12 -7 -10 -9 7 -8 15 2 20 8 18 21 -2 10 3
21 11 24 23 8 -5 24 -31 18 -11 -3 -14 -2 -7 1 6 3 10 9 7 14 -3 4 3 7 12 6 9
0 18 6 20 14 4 12 3 12 -5 1 -5 -7 -12 -9 -15 -4 -3 5 4 15 16 22 12 8 19 10
15 6 -4 -4 -3 -16 3 -26 8 -15 6 -19 -7 -19 -10 0 -15 -3 -11 -6 3 -4 13 -4
22 0 12 4 14 10 5 25 -6 12 -6 22 -1 25 5 4 11 0 14 -6 3 -10 8 -10 18 1 8 8
9 11 2 7 -17 -9 -28 15 -12 25 9 6 10 9 2 9 -7 0 -16 -6 -20 -12 -4 -7 -16
-14 -25 -14 -26 -2 -22 5 8 17 25 9 26 10 9 28 -16 18 -16 20 4 30 25 14 41
14 21 1 -12 -8 -13 -11 -1 -19 9 -6 10 -10 2 -14 -7 -3 -7 -5 1 -3 14 3 18 35
5 52 -5 8 -1 11 10 10 10 0 18 4 19 9 2 23 17 44 26 39 6 -4 5 4 -2 16 -11 20
-10 22 4 17 8 -3 18 -2 20 2 3 5 -5 8 -17 7 -12 -1 -21 -7 -19 -14 1 -7 -3
-23 -10 -35 -7 -12 -11 -26 -10 -30 1 -5 -2 -6 -8 -2 -6 3 -8 10 -5 15 3 4 2
10 -2 13 -5 2 -3 3 4 1 19 -4 23 35 5 46 -15 9 -15 10 2 8 10 -2 21 3 24 11 3
9 0 11 -8 6 -9 -5 -11 -4 -6 4 4 6 11 9 16 6 4 -3 11 2 14 10 3 9 -1 18 -9 22
-14 5 -13 7 1 18 9 6 14 16 11 22 -3 5 0 10 8 10 15 0 16 -18 0 -29 -15 -12 7
-10 25 2 11 7 11 10 2 10 -7 0 -10 5 -7 10 4 6 12 7 18 4 7 -4 9 -4 5 1 -4 4
0 14 10 22 13 10 14 13 2 11 -8 -2 -20 -10 -27 -18 -9 -11 -12 -12 -13 -2 0 7
-4 11 -8 8 -5 -3 -9 1 -9 9 0 11 4 12 14 4 10 -9 13 -8 13 4 0 11 6 15 18 11
10 -4 13 -2 7 3 -5 4 -17 17 -25 28 -14 19 -14 19 3 6 19 -15 22 -9 7 19 -8
16 -8 18 4 14 9 -3 14 -11 13 -16 -1 -6 5 -13 13 -15 9 -3 11 -1 5 4 -17 14
-17 36 -1 30 9 -4 18 -1 22 5 4 6 3 8 -4 4 -6 -3 -18 2 -28 11 -17 17 -18 17
-10 -2 6 -16 5 -17 -5 -8 -10 10 -9 17 6 33 13 14 14 20 5 20 -9 0 -7 5 6 15
10 8 15 15 10 15 -4 0 -1 11 8 25 19 29 21 52 4 58 -7 3 -3 4 9 4 15 -1 20 -6
18 -19 -2 -10 0 -16 5 -13 5 3 7 17 4 30 -3 16 0 25 8 25 8 0 6 5 -5 11 -9 5
-23 7 -30 4 -6 -4 -4 0 6 8 18 15 24 39 15 67 -3 8 -3 12 -1 7 3 -4 9 -5 14
-1 5 3 5 13 -1 24 -12 22 8 22 34 1 21 -17 21 -4 0 16 -8 9 -13 22 -10 29 3 7
1 16 -4 19 -6 4 -10 1 -10 -6 0 -7 -3 -10 -6 -7 -3 4 0 16 6 28 11 21 12 21
38 4 25 -16 26 -16 13 0 -12 15 -11 21 9 49 22 30 22 31 2 13 -19 -16 -22 -17
-22 -3 0 9 4 18 10 22 5 3 6 13 3 22 -4 10 -2 14 5 9 6 -3 14 -1 18 5 4 8 3 9
-4 5 -17 -11 -35 30 -22 53 5 11 10 28 10 38 0 15 -2 16 -10 3 -6 -9 -10 -10
-10 -3 0 21 19 24 29 5 7 -13 7 -22 0 -29 -8 -8 -7 -13 2 -18 7 -5 10 -4 5 3
-3 6 -2 13 4 17 7 4 7 12 0 25 -13 25 -13 43 2 34 6 -4 8 -3 4 4 -3 5 -3 12 1
15 5 2 3 2 -4 1 -7 -2 -16 2 -20 9 -12 18 -10 54 2 54 6 0 11 -8 11 -18 0 -10
-4 -15 -8 -13 -4 3 -8 0 -8 -5 0 -6 7 -11 16 -11 11 0 14 6 8 22 -6 20 -5 21
9 10 10 -9 17 -10 22 -2 4 6 1 9 -6 8 -7 -2 -14 2 -14 7 -3 28 -18 55 -27 49
-7 -5 -8 -2 -4 5 6 9 12 8 26 -4 14 -12 20 -13 26 -4 4 7 3 10 -4 5 -6 -3 -16
2 -21 13 -8 13 -8 20 0 23 5 2 12 12 14 23 2 11 4 20 5 20 7 0 6 36 -1 41 -15
9 -10 37 5 31 10 -4 13 -1 9 8 -3 8 -9 13 -13 10 -5 -3 -10 -2 -13 2 -2 5 -2
3 -1 -4 2 -7 -1 -15 -5 -17 -5 -3 -8 5 -7 17 1 16 7 22 23 22 12 0 25 3 29 7
3 4 -3 6 -15 3 -15 -3 -21 1 -21 13 0 15 -2 15 -10 2 -5 -8 -10 -10 -10 -4 0
18 13 24 27 12 11 -9 12 -7 6 8 -6 17 -5 18 12 4 18 -15 19 -14 2 10 -22 32
-22 46 1 29 16 -13 16 -12 3 4 -13 16 -13 20 0 29 11 8 11 9 -3 4 -22 -7 -32
9 -33 53 -1 37 19 65 38 54 7 -4 6 1 -2 10 -15 18 -26 23 -16 7 3 -5 2 -10 -3
-10 -6 0 -13 7 -16 16 -3 8 -2 12 4 9 14 -8 13 8 -1 22 -13 13 -4 33 14 32 9
0 9 -2 0 -6 -7 -2 -13 -9 -13 -14 0 -6 5 -7 12 -3 6 4 8 3 4 -4 -3 -6 -2 -13
2 -16 5 -3 8 15 7 39 -2 29 1 45 8 45 7 0 4 5 -6 11 -9 5 -21 8 -25 5 -4 -2
-7 13 -7 34 0 21 3 36 6 34 4 -2 6 -15 4 -29 -1 -14 1 -25 5 -25 5 0 8 16 8
35 0 23 -5 35 -14 35 -16 0 -19 16 -3 25 7 5 5 13 -5 24 -14 16 -14 18 -1 19
8 1 22 3 29 4 12 1 13 5 3 22 -6 12 -10 28 -9 36 2 9 -2 8 -9 -4 -9 -15 -9
-21 -1 -24 17 -5 15 -19 -3 -19 -8 0 -13 2 -10 5 2 3 0 14 -6 25 -8 14 -8 18
0 13 7 -5 11 1 11 14 0 13 -4 19 -11 14 -8 -5 -8 -1 0 13 7 14 7 24 -2 33 -9
10 -9 11 1 6 7 -4 12 -2 12 6 1 8 6 6 15 -6 13 -17 15 -18 15 -3 0 9 -5 17
-11 17 -5 0 -7 6 -3 13 6 9 4 9 -7 0 -17 -17 -37 -17 -21 -1 15 15 16 32 2 23
-6 -4 -10 -3 -9 2 1 4 -1 16 -6 26 -4 10 -5 21 -1 24 3 4 6 -1 6 -9 0 -23 26
-29 42 -10 7 8 8 13 2 9 -16 -9 -31 13 -28 41 1 13 -4 22 -12 22 -8 0 -13 3
-13 8 1 4 0 9 -1 12 -1 3 -3 19 -5 37 -1 23 2 30 11 26 8 -3 11 -10 7 -17 -12
-18 -12 -37 -1 -30 6 4 8 2 4 -4 -3 -6 -3 -13 2 -16 10 -6 9 60 -1 70 -4 4 1
13 11 20 13 10 14 12 2 12 -39 -3 -47 2 -45 30 1 15 -2 33 -8 39 -6 9 -4 21 8
39 11 18 14 29 7 36 -6 6 -8 17 -5 24 3 8 0 14 -5 14 -6 0 -9 -10 -7 -21 3
-12 1 -18 -3 -15 -4 4 -7 11 -7 14 0 4 -4 13 -9 21 -6 10 -5 12 2 7 8 -5 12 0
12 13 0 12 -5 21 -11 21 -5 0 -7 5 -4 10 3 6 1 10 -6 10 -7 0 -9 3 -6 6 4 4
13 1 22 -6 23 -19 18 -3 -7 19 -12 12 -22 35 -23 54 -2 19 -7 42 -12 53 -6 10
-9 29 -7 42 2 13 0 21 -4 18 -4 -2 -8 3 -9 12 -3 30 -11 71 -17 81 -4 5 -1 13
5 17 9 5 7 11 -6 21 -11 7 -13 13 -7 13 7 0 12 4 12 10 0 5 -6 7 -14 4 -11 -4
-13 0 -9 15 3 13 1 21 -6 21 -7 0 -10 4 -6 9 3 5 1 12 -3 15 -5 3 -7 17 -4 32
3 18 0 30 -11 35 -9 6 -13 17 -10 29 3 13 0 20 -8 20 -10 0 -10 3 -1 12 17 17
15 33 -3 18 -12 -10 -14 -8 -10 9 2 12 0 21 -6 21 -5 0 -9 12 -9 26 0 16 4 23
12 18 7 -4 8 -3 4 4 -4 6 -14 8 -24 5 -14 -6 -15 -4 -4 9 10 13 9 16 -9 21
-21 6 -21 7 -5 32 17 26 17 26 -4 15 -13 -7 -20 -8 -16 -2 3 5 0 22 -8 37 -8
15 -12 34 -9 43 5 11 3 13 -7 7 -8 -5 -11 -4 -6 3 3 6 1 14 -5 18 -9 5 -6 11
7 22 18 14 18 14 -2 8 -16 -5 -23 -2 -27 14 -3 11 -1 18 4 14 5 -3 6 2 3 10
-3 9 -10 13 -15 10 -5 -3 -9 2 -9 10 0 28 -1 31 -15 39 -8 4 -12 14 -9 22 4 8
1 15 -6 15 -7 0 -10 7 -6 16 3 8 2 13 -3 10 -5 -3 -12 1 -15 10 -3 8 -2 12 4
9 6 -3 10 -1 10 4 0 6 -7 11 -15 11 -9 0 -12 6 -8 17 4 11 3 14 -5 9 -11 -6
-14 0 -11 20 0 4 -5 11 -13 15 -10 7 -10 9 2 9 10 0 7 5 -8 16 -13 9 -22 26
-22 40 0 14 -4 23 -9 20 -5 -3 -12 1 -15 10 -4 10 -2 13 6 8 6 -4 8 -3 4 4 -3
5 0 13 6 16 7 3 3 3 -8 1 -14 -4 -24 0 -28 10 -3 9 -2 13 4 10 6 -3 7 1 4 9
-3 9 -10 14 -14 11 -4 -2 -18 17 -31 43 -13 26 -28 49 -32 50 -4 2 -2 10 4 18
10 12 9 16 -8 20 -23 6 -53 53 -46 72 3 7 1 12 -4 11 -20 -3 -27 2 -13 11 13
8 13 10 -2 10 -9 0 -22 14 -30 30 -7 17 -16 30 -20 30 -5 0 -8 5 -8 11 0 5 4
7 10 4 6 -3 7 1 3 10 -3 10 -8 13 -12 6 -5 -7 -13 -4 -23 9 -12 13 -13 20 -5
24 7 2 3 5 -7 5 -11 1 -16 4 -13 8 4 3 -1 12 -11 20 -9 8 -12 12 -5 9 6 -4 15
-1 19 5 4 7 3 9 -4 5 -12 -7 -64 43 -56 56 3 4 0 8 -6 8 -6 0 -8 5 -4 12 4 6
3 8 -3 5 -14 -9 -37 19 -28 33 4 6 1 9 -7 8 -7 -2 -13 5 -13 14 0 9 -4 20 -9
25 -5 4 -6 3 -2 -4 4 -7 3 -13 -1 -13 -9 0 -40 47 -43 65 -1 6 -4 12 -7 15 -4
3 -3 -2 1 -10 4 -8 -6 1 -22 20 -17 19 -28 38 -25 43 2 4 -1 6 -9 5 -7 -2 -12
3 -11 10 2 6 -4 12 -12 12 -16 0 -21 15 -7 23 4 2 2 3 -4 1 -6 -1 -17 7 -25
18 -8 10 -33 40 -57 65 -25 28 -40 53 -37 61 4 11 2 12 -7 4 -14 -11 -43 10
-31 22 4 3 1 6 -6 6 -7 0 -9 5 -6 10 4 6 1 9 -7 8 -7 -2 -12 3 -11 9 2 7 -2
12 -9 10 -6 -1 -17 9 -25 23 -7 14 -13 21 -13 16 0 -6 -30 20 -66 57 -36 37
-70 67 -75 67 -5 0 -9 6 -9 13 0 6 -14 20 -31 29 -18 11 -27 22 -23 29 4 7 3
9 -3 6 -6 -4 -32 14 -58 38 -26 25 -50 45 -54 45 -3 0 -26 18 -51 40 -25 22
-50 44 -55 48 -6 4 -28 21 -50 37 -88 66 -247 175 -256 175 -5 0 -9 5 -9 10 0
6 -7 10 -15 10 -8 0 -15 5 -15 10 0 6 -5 10 -10 10 -6 0 -50 24 -98 54 -48 29
-126 74 -173 99 -47 25 -95 50 -105 55 -18 10 -43 22 -214 100 -253 115 -658
238 -965 292 -33 5 -69 12 -80 14 -12 2 -48 7 -80 11 -33 4 -67 9 -75 10 -8 2
-46 6 -85 10 -38 4 -83 10 -100 12 -39 5 -591 14 -596 9z m4581 -3656 c0 -5
-8 -10 -17 -10 -15 0 -16 2 -3 10 19 12 20 12 20 0z m25 -269 c3 -5 2 -12 -3
-15 -5 -3 -9 1 -9 9 0 17 3 19 12 6z m31 -449 c0 -10 -6 -19 -13 -19 -8 0 -9
6 -2 19 5 10 11 18 12 18 2 0 3 -8 3 -18z m-6 -242 c0 -5 -4 -10 -10 -10 -5 0
-10 5 -10 10 0 6 5 10 10 10 6 0 10 -4 10 -10z m-5 -31 c11 -16 1 -19 -13 -3
-7 8 -8 14 -3 14 5 0 13 -5 16 -11z m0 -166 c-2 -10 -4 -20 -4 -22 -2 -13 -25
21 -26 38 -1 16 2 18 16 11 9 -6 16 -18 14 -27z m-11 -44 c-8 -14 -21 -11 -21
5 0 8 6 12 14 9 7 -3 10 -9 7 -14z m-14 -84 c11 -13 10 -14 -4 -9 -9 3 -16 10
-16 15 0 13 6 11 20 -6z m-15 -95 c-3 -5 -11 -10 -16 -10 -6 0 -7 5 -4 10 3 6
11 10 16 10 6 0 7 -4 4 -10z m-20 -129 c3 -5 1 -12 -5 -16 -5 -3 -10 -11 -10
-16 0 -6 5 -7 12 -3 7 5 8 3 3 -5 -5 -9 -10 -10 -18 -2 -7 7 -6 15 2 25 9 11
9 15 -1 19 -9 4 -9 6 -1 6 6 1 14 -3 18 -8z m-5 -92 c0 -4 -9 -7 -19 -6 -15 1
-17 4 -10 14 6 7 8 18 4 25 -4 7 1 4 9 -6 9 -11 16 -23 16 -27z m-65 -239 c-3
-5 -12 -10 -18 -10 -7 0 -6 4 3 10 19 12 23 12 15 0z m-37 -70 c-7 -10 -14
-17 -17 -15 -4 4 18 35 25 35 2 0 -1 -9 -8 -20z m-254 -723 c-7 -18 -24 -23
-24 -7 0 6 5 10 11 10 6 0 8 7 4 18 -4 12 -3 14 5 6 6 -6 8 -18 4 -27z m-184
-321 c0 -2 -7 -7 -16 -10 -8 -3 -12 -2 -9 4 6 10 25 14 25 6z m0 -31 c-33 -19
-49 -19 -24 0 10 8 26 14 34 14 9 0 4 -6 -10 -14z m-43 -40 c-4 -8 -2 -17 4
-21 7 -4 6 -10 -1 -19 -12 -14 -35 -14 -47 0 -4 4 -3 5 3 2 15 -9 32 13 29 36
-2 9 1 17 7 17 6 0 8 -7 5 -15z m-93 -150 c-4 -8 -11 -12 -16 -9 -6 4 -5 10 3
15 19 12 19 11 13 -6z m-24 -25 c0 -5 -5 -10 -11 -10 -5 0 -7 5 -4 10 3 6 8
10 11 10 2 0 4 -4 4 -10z m-70 -132 c0 7 5 10 11 6 8 -5 6 -10 -5 -16 -9 -5
-14 -13 -12 -17 3 -4 -1 -8 -9 -8 -8 0 -12 4 -9 9 3 4 -3 9 -13 9 -16 1 -16 2
-1 6 11 3 15 10 11 21 -4 13 -2 12 10 -3 10 -12 16 -15 17 -7z m-40 -32 c0 -2
-7 -7 -16 -10 -8 -3 -12 -2 -9 4 6 10 25 14 25 6z m-130 -151 c0 -8 -4 -15
-10 -15 -5 0 -7 7 -4 15 4 8 8 15 10 15 2 0 4 -7 4 -15z m-66 -127 c-3 -5 -12
-2 -20 6 -20 21 -17 28 5 14 11 -7 17 -16 15 -20z m-109 -77 c-3 -6 -11 -11
-16 -11 -5 0 -4 6 3 14 14 16 24 13 13 -3z m-215 -205 c0 -2 -8 -10 -17 -17
-16 -13 -17 -12 -4 4 13 16 21 21 21 13z m-32 -80 c-7 -14 -13 -16 -16 -8 -2
6 -7 10 -12 7 -5 -3 -7 2 -6 11 1 8 9 20 16 24 20 13 31 -9 18 -34z m-48 4 c0
-5 -5 -10 -11 -10 -5 0 -7 5 -4 10 3 6 8 10 11 10 2 0 4 -4 4 -10z m-145 -129
c-3 -6 -11 -11 -16 -11 -5 0 -4 6 3 14 14 16 24 13 13 -3z m-16 -35 c9 -11 9
-16 0 -22 -7 -4 -9 -3 -5 4 3 6 -2 15 -11 21 -10 6 -13 11 -7 11 6 0 17 -6 23
-14z m-19 -16 c0 -4 -10 -15 -22 -26 -12 -10 -18 -14 -15 -7 4 6 0 16 -10 22
-10 6 -13 11 -7 11 5 0 15 -5 21 -11 8 -8 13 -8 17 0 4 6 2 11 -3 11 -6 0 -11
4 -11 10 0 5 7 7 15 4 8 -4 15 -9 15 -14z m-50 -24 c0 -2 -9 -6 -20 -9 -11 -3
-18 -1 -14 4 5 9 34 13 34 5z m-323 -226 c-2 -24 -12 -26 -21 -4 -3 8 -2 12 4
9 6 -3 10 -1 10 4 0 6 2 11 4 11 3 0 4 -9 3 -20z m-27 -31 c0 -4 -7 -6 -15 -3
-8 4 -15 10 -15 15 0 4 7 6 15 3 8 -4 15 -10 15 -15z m-253 -125 c-3 -3 -12
-4 -19 -1 -8 3 -5 6 6 6 11 1 17 -2 13 -5z m-40 -20 c-3 -3 -12 -4 -19 -1 -8
3 -5 6 6 6 11 1 17 -2 13 -5z m31 -8 c-7 -8 -15 -12 -17 -11 -5 6 10 25 20 25
5 0 4 -6 -3 -14z m-121 -50 c-8 -16 -14 -21 -19 -13 -11 17 -10 29 1 22 5 -3
12 -1 16 5 12 19 13 10 2 -14z m-77 -31 c4 3 11 -2 14 -10 4 -13 2 -14 -14 -5
-11 6 -20 16 -19 23 0 9 2 9 6 -1 2 -6 8 -10 13 -7z m-22 -30 c-3 -3 -9 2 -12
12 -6 14 -5 15 5 6 7 -7 10 -15 7 -18z m-268 -97 c0 -9 4 -8 10 2 5 8 10 10
10 4 0 -6 -8 -18 -17 -25 -10 -7 -15 -9 -11 -5 4 5 3 15 -3 23 -9 9 -8 13 0
13 6 0 11 -6 11 -12z m-199 -85 c-1 -4 -14 -8 -30 -9 -22 -1 -28 3 -24 13 5
12 7 12 15 1 7 -10 11 -9 20 7 10 17 21 11 19 -12z m-212 -57 c8 -9 7 -13 -4
-13 -8 0 -12 4 -9 9 3 4 1 8 -5 8 -5 0 -14 -7 -19 -16 -6 -11 -11 -13 -16 -5
-4 6 -2 11 4 11 6 0 9 4 6 8 -8 13 32 11 43 -2z m-199 -51 c-7 -8 -18 -15 -24
-14 -6 0 -5 3 3 6 11 5 11 7 0 15 -11 8 -10 9 4 4 9 -3 17 0 17 6 0 6 3 8 6 5
4 -4 1 -13 -6 -22z m-86 -11 c3 -8 2 -12 -4 -9 -6 3 -10 0 -11 -7 0 -10 -2
-11 -6 0 -4 10 -8 10 -19 1 -10 -8 -14 -8 -14 0 0 10 13 15 33 12 4 0 7 4 7 9
0 15 7 12 14 -6z m44 5 c-2 -6 -8 -10 -13 -10 -5 0 -11 4 -13 10 -2 6 4 11 13
11 9 0 15 -5 13 -11z m-1588 -39 c0 -4 14 -6 32 -6 20 1 33 -4 35 -14 3 -9 1
-11 -4 -4 -4 6 -20 10 -36 9 -15 -1 -35 3 -44 10 -14 11 -14 12 1 12 9 0 16
-3 16 -7z m277 -35 c0 -17 -13 -20 -21 -6 -4 5 0 12 6 14 7 3 13 6 14 6 0 1 1
-6 1 -14z m390 -18 c0 -7 -9 -13 -19 -13 -23 0 -24 13 0 19 9 3 17 5 18 6 0 0
1 -5 1 -12z m233 -2 c5 -3 10 -11 10 -17 0 -6 -9 -3 -20 7 -15 14 -20 15 -21
4 0 -10 -2 -11 -6 -1 -2 6 -9 10 -14 6 -5 -3 -9 0 -9 6 0 10 40 7 60 -5z"/>
<path d="M9495 4691 c-3 -5 -2 -12 3 -15 5 -3 9 1 9 9 0 17 -3 19 -12 6z"/>
<path d="M8065 1850 c4 -6 11 -8 16 -5 14 9 11 15 -7 15 -8 0 -12 -5 -9 -10z"/>
<path d="M8946 7275 c4 -8 11 -15 16 -15 6 0 5 6 -2 15 -7 8 -14 15 -16 15 -2
0 -1 -7 2 -15z"/>
<path d="M8970 7239 c0 -5 5 -7 10 -4 6 3 10 8 10 11 0 2 -4 4 -10 4 -5 0 -10
-5 -10 -11z"/>
<path d="M9075 7040 c-3 -5 -1 -10 4 -10 6 0 11 5 11 10 0 6 -2 10 -4 10 -3 0
-8 -4 -11 -10z"/>
<path d="M9224 6712 c0 -10 6 -19 13 -19 8 0 9 6 2 19 -5 10 -11 18 -12 18 -2
0 -3 -8 -3 -18z"/>
<path d="M9315 6440 c-3 -5 -1 -10 4 -10 6 0 11 5 11 10 0 6 -2 10 -4 10 -3 0
-8 -4 -11 -10z"/>
<path d="M9330 6366 c0 -2 6 -9 14 -15 11 -9 16 -9 22 0 4 8 3 9 -4 5 -7 -4
-12 -2 -12 3 0 6 -4 11 -10 11 -5 0 -10 -2 -10 -4z"/>
<path d="M9370 6237 c0 -2 6 -10 14 -16 11 -9 16 -9 22 1 4 7 4 10 -1 6 -4 -4
-14 -3 -22 3 -7 6 -13 9 -13 6z"/>
<path d="M9385 6190 c5 -8 10 -21 10 -29 0 -8 7 -16 15 -18 12 -4 13 -3 1 5
-7 5 -11 14 -7 20 3 5 -2 16 -11 23 -15 12 -16 12 -8 -1z"/>
<path d="M9409 6128 c-6 -22 -5 -40 5 -54 12 -16 13 -15 11 2 0 11 -4 25 -8
31 -4 6 -1 14 5 16 10 4 10 6 1 6 -7 1 -13 0 -14 -1z"/>
<path d="M9429 6048 c-7 -13 -4 -46 3 -42 4 3 5 10 2 16 -4 6 0 14 7 19 10 6
11 9 2 9 -7 0 -14 -1 -14 -2z"/>
<path d="M9471 5806 c-9 -11 -9 -16 1 -22 7 -4 10 -4 6 1 -4 4 -3 14 3 22 6 7
9 13 6 13 -2 0 -10 -6 -16 -14z"/>
<path d="M9475 5760 c-3 -5 -1 -10 4 -10 6 0 11 5 11 10 0 6 -2 10 -4 10 -3 0
-8 -4 -11 -10z"/>
<path d="M9475 5730 c3 -5 8 -10 11 -10 2 0 4 5 4 10 0 6 -5 10 -11 10 -5 0
-7 -4 -4 -10z"/>
<path d="M9510 5401 c0 -6 4 -12 8 -15 5 -3 9 1 9 9 0 8 -4 15 -9 15 -4 0 -8
-4 -8 -9z"/>
<path d="M9519 5277 c7 -7 7 -15 0 -24 -8 -9 -8 -13 0 -13 6 0 11 5 11 11 0 5
6 7 13 3 9 -6 9 -5 0 8 -7 8 -11 17 -8 20 3 2 -2 5 -10 5 -11 0 -12 -4 -6 -10z"/>
<path d="M9521 4981 c-11 -7 -11 -9 0 -14 12 -5 11 -7 -1 -16 -12 -8 -11 -10
7 -8 17 1 20 5 13 18 -5 9 -6 19 -3 23 9 9 0 7 -16 -3z"/>
<path d="M9520 4920 c-13 -8 -13 -10 2 -10 9 0 20 5 23 10 8 13 -5 13 -25 0z"/>
<path d="M9460 4361 c0 -6 4 -13 10 -16 6 -3 7 1 4 9 -7 18 -14 21 -14 7z"/>
<path d="M9420 4201 c0 -10 19 -25 25 -20 1 2 -3 10 -11 17 -8 7 -14 8 -14 3z"/>
<path d="M9435 4160 c3 -5 8 -10 11 -10 2 0 4 5 4 10 0 6 -5 10 -11 10 -5 0
-7 -4 -4 -10z"/>
<path d="M9414 4118 c3 -10 1 -20 -5 -24 -6 -3 -8 -11 -6 -17 2 -7 1 -21 -4
-33 -5 -14 -3 -21 5 -21 7 0 11 13 10 31 -1 17 2 36 6 41 5 6 4 17 -2 25 -8
12 -9 12 -4 -2z"/>
<path d="M9364 3912 c-10 -15 -8 -18 10 -20 16 -1 18 1 6 8 -10 7 -11 10 -2
10 6 0 12 5 12 10 0 16 -14 12 -26 -8z"/>
<path d="M9349 3875 c-1 -3 -2 -8 -3 -12 -1 -5 -5 -13 -9 -19 -4 -7 0 -14 8
-17 10 -4 12 -1 8 11 -6 15 -5 15 10 3 9 -7 17 -9 17 -3 0 5 -8 13 -17 17 -17
7 -16 8 2 15 17 7 17 9 3 9 -10 1 -19 -1 -19 -4z"/>
<path d="M9267 3629 c9 -9 9 -18 2 -31 -9 -17 -8 -18 10 -9 22 12 19 36 -7 46
-13 5 -14 4 -5 -6z"/>
<path d="M9012 3018 c-7 -7 -12 -8 -12 -4 0 5 -10 -3 -21 -18 -12 -15 -19 -30
-15 -33 3 -3 8 2 12 11 3 9 10 13 15 10 5 -3 6 -10 3 -16 -4 -7 -2 -8 5 -4 6
4 9 11 6 16 -3 5 2 16 11 25 9 9 14 18 12 20 -2 3 -10 -1 -16 -7z"/>
<path d="M8910 2820 c0 -5 5 -10 11 -10 5 0 7 5 4 10 -3 6 -8 10 -11 10 -2 0
-4 -4 -4 -10z"/>
<path d="M8824 2728 c-4 -6 -2 -14 4 -16 7 -2 9 -9 6 -14 -4 -6 -2 -8 4 -5 5
4 8 16 5 27 -6 23 -9 24 -19 8z"/>
<path d="M8856 2727 c3 -10 9 -15 12 -12 3 3 0 11 -7 18 -10 9 -11 8 -5 -6z"/>
<path d="M8810 2651 c0 -7 -4 -10 -8 -7 -5 3 -9 -2 -9 -10 0 -13 2 -13 16 0 8
9 12 19 8 22 -4 4 -7 2 -7 -5z"/>
<path d="M8614 2424 c-23 -15 -40 -34 -40 -44 0 -10 3 -17 7 -14 4 2 9 1 12
-3 2 -5 2 -3 1 4 -2 7 6 15 17 18 11 4 16 11 13 17 -5 8 -1 9 12 4 15 -6 16
-5 7 5 -10 10 -9 15 5 25 30 23 8 15 -34 -12z m0 -19 c-4 -8 -11 -15 -16 -15
-6 0 -5 6 2 15 7 8 14 15 16 15 2 0 1 -7 -2 -15z"/>
<path d="M8393 2182 c-8 -5 -6 -13 7 -30 10 -12 22 -22 26 -22 4 0 -1 10 -12
22 -19 21 -19 21 0 14 16 -5 17 -4 6 9 -7 8 -13 15 -14 15 0 0 -6 -4 -13 -8z"/>
<path d="M8330 2081 c0 -8 -6 -11 -16 -7 -8 3 -12 2 -9 -3 3 -5 -4 -16 -15
-24 -18 -13 -19 -15 -5 -21 9 -3 13 -2 10 3 -3 5 -1 12 5 16 5 3 10 0 10 -7 1
-7 8 0 16 15 9 16 13 31 10 35 -3 3 -6 0 -6 -7z"/>
<path d="M7955 1700 c-3 -5 -1 -10 4 -10 6 0 11 5 11 10 0 6 -2 10 -4 10 -3 0
-8 -4 -11 -10z"/>
<path d="M7603 1481 c-33 -35 -36 -66 -4 -37 10 9 21 13 26 9 4 -5 5 -2 0 6
-6 10 -2 12 16 7 20 -6 21 -5 6 4 -9 6 -23 8 -30 5 -6 -4 -3 1 7 9 24 19 40
21 30 4 -6 -10 -5 -10 8 -1 8 7 18 10 22 6 4 -4 4 0 1 9 -10 26 -47 17 -82
-21z m7 -15 c0 -2 -8 -10 -17 -17 -16 -13 -17 -12 -4 4 13 16 21 21 21 13z"/>
<path d="M2915 1301 c-3 -5 -2 -12 3 -15 5 -3 9 1 9 9 0 17 -3 19 -12 6z"/>
<path d="M3070 1220 c0 -5 5 -10 11 -10 5 0 7 5 4 10 -3 6 -8 10 -11 10 -2 0
-4 -4 -4 -10z"/>
<path d="M7146 1202 c-2 -4 -1 -14 5 -22 6 -11 9 -12 9 -2 0 7 4 10 10 7 6 -3
7 1 4 9 -7 17 -20 21 -28 8z"/>
<path d="M7200 1195 c-19 -22 -8 -25 13 -3 9 10 13 18 8 18 -5 0 -14 -7 -21
-15z"/>
<path d="M7102 1178 c-18 -18 -15 -27 7 -25 14 1 17 5 11 13 -6 6 -7 14 -3 17
3 4 4 7 2 7 -3 0 -10 -5 -17 -12z"/>
<path d="M3412 1064 c10 -10 20 -15 24 -12 3 4 -5 12 -18 18 -22 12 -22 12 -6
-6z"/>
<path d="M6813 1058 c-12 -17 -11 -39 2 -35 5 1 8 8 7 16 -2 7 1 10 7 6 7 -3
8 0 5 9 -7 19 -9 19 -21 4z"/>
<path d="M3514 1019 c-4 -7 -3 -9 4 -5 5 3 13 0 15 -6 4 -9 6 -10 6 -1 1 17
-16 25 -25 12z"/>
<path d="M6579 978 c-6 -21 -5 -38 2 -38 5 0 9 9 9 20 0 16 -7 28 -11 18z"/>
<path d="M3675 960 c-3 -5 -1 -10 4 -10 6 0 11 5 11 10 0 6 -2 10 -4 10 -3 0
-8 -4 -11 -10z"/>
<path d="M6540 925 c-9 -10 -9 -15 -1 -15 6 0 11 5 11 11 0 5 5 7 12 3 7 -4 8
-3 4 4 -9 15 -11 15 -26 -3z"/>
<path d="M3850 901 c0 -6 4 -13 10 -16 6 -3 7 1 4 9 -7 18 -14 21 -14 7z"/>
<path d="M3896 885 c4 -8 8 -15 10 -15 2 0 4 7 4 15 0 8 -4 15 -10 15 -5 0 -7
-7 -4 -15z"/>
<path d="M4011 865 c0 -5 3 -16 8 -23 7 -11 9 -10 14 3 4 9 3 14 -2 10 -5 -3
-12 1 -14 7 -3 7 -6 9 -6 3z"/>
<path d="M4080 826 c0 -2 7 -7 16 -10 8 -3 12 -2 9 4 -6 10 -25 14 -25 6z"/>
<path d="M5886 778 c-15 -17 -15 -20 -3 -15 9 3 18 1 21 -6 2 -7 4 0 3 16 -1
15 -2 27 -2 27 0 0 -9 -10 -19 -22z"/>
<path d="M4348 768 c2 -10 8 -21 13 -24 5 -3 6 1 3 9 -6 18 12 32 21 17 9 -14
28 -13 23 2 -3 7 -18 13 -35 13 -24 1 -29 -3 -25 -17z"/>
<path d="M5799 747 c-9 -20 -9 -20 4 -5 10 12 17 14 24 7 6 -6 16 -10 22 -8 6
2 -1 9 -14 16 -22 10 -27 9 -36 -10z"/>
<path d="M5518 733 c6 -2 10 -8 8 -12 -3 -4 6 -7 19 -7 13 0 21 4 19 8 -3 5
-9 6 -14 3 -5 -3 -11 -1 -15 5 -3 5 -12 10 -18 9 -9 0 -8 -2 1 -6z"/>
<path d="M4983 713 c0 -9 4 -10 14 -2 7 6 13 12 13 14 0 1 -6 2 -13 2 -8 0
-14 -6 -14 -14z"/>
<path d="M4953 705 c0 -8 4 -12 9 -9 4 3 8 9 8 15 0 5 -4 9 -8 9 -5 0 -9 -7
-9 -15z"/>
</g>
</svg>
